<?xml version="1.0" encoding="UTF-8" standalone="no"?>
<!-- Created with Inkscape (http://www.inkscape.org/) -->

<svg
   xmlns:dc="http://purl.org/dc/elements/1.1/"
   xmlns:cc="http://creativecommons.org/ns#"
   xmlns:rdf="http://www.w3.org/1999/02/22-rdf-syntax-ns#"
   xmlns:svg="http://www.w3.org/2000/svg"
   xmlns="http://www.w3.org/2000/svg"
   xmlns:xlink="http://www.w3.org/1999/xlink"
   xmlns:sodipodi="http://sodipodi.sourceforge.net/DTD/sodipodi-0.dtd"
   xmlns:inkscape="http://www.inkscape.org/namespaces/inkscape"
   width="210mm"
   height="297mm"
   id="svg3068"
   version="1.1"
   inkscape:version="0.48.4 r9939"
   sodipodi:docname="Nuevo documento 2">
  <defs
     id="defs3070">
    <filter
       color-interpolation-filters="sRGB"
       inkscape:collect="always"
       id="filter4501">
      <feGaussianBlur
         inkscape:collect="always"
         stdDeviation="6.6285365"
         id="feGaussianBlur4503" />
    </filter>
    <linearGradient
       inkscape:collect="always"
       xlink:href="#linearGradient3407"
       id="linearGradient4535"
       gradientUnits="userSpaceOnUse"
       gradientTransform="matrix(-429.6962,-261.36511,-261.36511,429.6962,1560.0961,432.23052)"
       spreadMethod="pad"
       x1="0"
       y1="0"
       x2="1"
       y2="0" />
    <linearGradient
       x1="0"
       y1="0"
       x2="1"
       y2="0"
       gradientUnits="userSpaceOnUse"
       gradientTransform="matrix(-429.6962,-261.36511,-261.36511,429.6962,477.45703,520.90723)"
       spreadMethod="pad"
       id="linearGradient3407">
      <stop
         style="stop-opacity:1;stop-color:#b6b3b2"
         offset="0"
         id="stop3409" />
      <stop
         style="stop-opacity:1;stop-color:#f7f7f7"
         offset="0.139389"
         id="stop3411" />
      <stop
         style="stop-opacity:1;stop-color:#f7f7f7"
         offset="0.139389"
         id="stop3413" />
      <stop
         style="stop-opacity:1;stop-color:#ffffff"
         offset="0.333328"
         id="stop3415" />
      <stop
         style="stop-opacity:1;stop-color:#eeeff0"
         offset="0.884842"
         id="stop3417" />
      <stop
         style="stop-opacity:1;stop-color:#eeeff0"
         offset="1"
         id="stop3419" />
    </linearGradient>
  </defs>
  <sodipodi:namedview
     id="base"
     pagecolor="#ffffff"
     bordercolor="#666666"
     borderopacity="1.0"
     inkscape:pageopacity="0.0"
     inkscape:pageshadow="2"
     inkscape:zoom="0.35"
     inkscape:cx="350"
     inkscape:cy="520"
     inkscape:document-units="px"
     inkscape:current-layer="layer1"
     showgrid="false"
     inkscape:window-width="642"
     inkscape:window-height="408"
     inkscape:window-x="0"
     inkscape:window-y="25"
     inkscape:window-maximized="0" />
  <metadata
     id="metadata3073">
    <rdf:RDF>
      <cc:Work
         rdf:about="">
        <dc:format>image/svg+xml</dc:format>
        <dc:type
           rdf:resource="http://purl.org/dc/dcmitype/StillImage" />
        <dc:title></dc:title>
      </cc:Work>
    </rdf:RDF>
  </metadata>
  <g
     inkscape:label="Capa 1"
     inkscape:groupmode="layer"
     id="layer1">
    <g
       id="g4521"
       transform="matrix(1.25,0,0,-1.25,-1339.2514,916.91307)">
      <g
         id="g3041">
        <path
           d="m 1303.4591,519.93829 -102.476,0 c -31.226,0 -56.539,-25.314 -56.539,-56.539 l 0,0 0,-310.964 c 0,-31.223 25.313,-56.539 56.539,-56.539 l 0,0 346.3,0 c 31.225,0 56.539,25.316 56.539,56.539 l 0,0 0,196.709"
           style="fill:none;stroke:#000000;stroke-width:4;stroke-linejoin:round;stroke-miterlimit:4;stroke-dasharray:none;filter:url(#filter4501)"
           id="path3687"
           inkscape:connector-curvature="0"
           sodipodi:nodetypes="csccsccsccc"
           transform="matrix(1.0000764,0,0,0.98083759,-0.10504575,10.388734)" />
        <path
           d="m 1450.2866,421.95759 21.275,-33.858 c -9.349,-5.873 -21.689,-3.059 -27.56,6.283 -5.883,9.357 -3.065,21.704 6.285,27.575 m -14.89,13.297 c 2.006,-3.839 2.177,-6.006 1.726,-8.781 -0.492,-2.791 -2.145,-6.343 -4.332,-11.192 -3.016,-6.866 -5.342,-14.257 -4.233,-21.89 1.068,-7.68 6.103,-14.913 15.536,-20.089 9.188,-5.167 17.25,-6.536 24.034,-4.603 6.782,1.939 11.454,6.931 14.51,12.423 1.683,2.949 2.675,6.326 2.289,9.821 -0.385,3.497 -1.899,6.747 -4.171,10.277 l -0.032,0.055 -32.729,48.454 -1.937,2.851 c -0.991,1.474 -0.616,3.469 0.856,4.463 0.198,0.136 0.424,0.232 0.635,0.31 0.025,0.01 0.047,0.03 0.069,0.037 0.012,-0.007 0.019,0 0.019,0.007 l -29.892,48.797 -22.631,31.306 c -4.078,5.957 -7.977,9.709 -11.666,11.795 -2.496,1.409 -4.98,2.097 -7.322,2.043 -2.321,-0.043 -4.356,-0.853 -5.805,-1.856 l -3.519,-2.386 58.565,-95.492 10.03,-16.35 z m 62.721,54.974 c 11.038,-0.2 19.828,-9.324 19.619,-20.359 l -39.984,0.738 c 0.21,11.038 9.327,19.822 20.365,19.621 m 12.701,-35.127 0.09,-0.009 c 4.194,-0.094 7.76,0.313 10.941,1.813 3.184,1.507 5.545,4.118 7.178,7.09 3.081,5.473 4.901,12.073 3.005,18.86 -1.9,6.798 -7.281,12.95 -16.483,18.087 -0.111,0.06 -0.207,0.113 -0.311,0.173 -9.237,5.169 -17.917,5.641 -24.943,2.567 -7.088,-3.048 -12.175,-8.898 -16.44,-15.045 -2.991,-4.406 -5.16,-7.668 -7.281,-9.55 -2.133,-1.84 -4.084,-2.828 -8.423,-3.127 l -12.718,0 11.345,-18.499 54.04,-2.36 z m -183.59,21.296 -0.198,-4.255 c -0.098,-1.754 0.281,-3.909 1.452,-5.915 1.183,-2.018 3.065,-3.775 5.568,-5.172 3.711,-2.052 8.951,-3.414 16.159,-3.771 l 61.63,-4.295 -14.312,23.353 -70.299,0.055 z"
           style="fill:#9c9b9b;fill-opacity:1;fill-rule:nonzero;stroke:none"
           id="path3661"
           inkscape:connector-curvature="0" />
        <path
           inkscape:connector-curvature="0"
           id="path3665"
           style="fill:url(#linearGradient4535);stroke:none"
           d="m 1200.9831,531.13829 c -31.226,0 -56.539,-25.314 -56.539,-56.539 l 0,0 0,-310.964 c 0,-31.223 25.313,-56.539 56.539,-56.539 l 0,0 346.3,0 c 31.225,0 56.539,25.316 56.539,56.539 l 0,0 0,196.709 -300.363,170.794 -102.476,0 z" />
        <path
           d="m 1260.6484,315.18369 c 16.272,0.064 31.232,-5.389 44.891,-16.367 10.714,-8.627 16.074,-17.548 16.074,-26.76 0,-7.84 -3.269,-13.914 -9.802,-18.229 -3.725,-2.485 -7.777,-3.727 -12.152,-3.727 -3.596,0 -7.026,0.851 -10.293,2.549 -1.371,0.718 -4.769,4.021 -10.194,9.901 -5.031,5.489 -11.337,8.232 -18.915,8.232 -7.318,0 -13.445,-2.536 -18.377,-7.597 -4.935,-5.061 -7.401,-11.254 -7.401,-18.569 0,-7.252 2.466,-13.417 7.401,-18.479 4.932,-5.061 11.026,-7.592 18.278,-7.592 6.011,0 11.599,2.025 16.762,6.074 3.2,3.073 6.37,6.142 9.506,9.211 3.398,2.945 7.709,4.413 12.938,4.413 6.012,0 11.222,-2.108 15.632,-6.323 4.41,-4.215 6.617,-9.326 6.617,-15.335 0,-8.172 -4.803,-16.435 -14.408,-24.8 -13.461,-11.76 -29.013,-17.641 -46.654,-17.641 -10.914,0 -21.204,2.319 -30.873,6.957 -12.221,5.88 -21.941,14.521 -29.16,25.923 -7.219,11.401 -10.829,23.871 -10.829,37.393 0,20.254 7.514,37.504 22.541,51.749 13.265,12.548 29.404,18.883 48.418,19.017"
           style="fill:#00afe6;fill-opacity:1;fill-rule:nonzero;stroke:none"
           id="path3667"
           inkscape:connector-curvature="0" />
        <path
           d="m 1376.5004,286.46779 0,-52.637 c 0,-10.192 4.083,-15.285 12.25,-15.285 8.167,0 12.253,4.896 12.253,14.695 l 0,53.324 c 0,4.9 0.129,8.065 0.392,9.506 0.521,2.746 1.927,5.489 4.214,8.231 4.443,5.493 10.127,8.235 17.054,8.235 6.991,0 12.74,-2.677 17.25,-8.037 3.462,-4.119 5.194,-11.204 5.194,-21.271 l 0,-47.24 c 0,-17.512 -4.64,-31.559 -13.916,-42.142 -11.567,-13.136 -25.713,-19.702 -42.441,-19.702 -10.258,0 -19.93,2.742 -29.01,8.231 -11.565,6.989 -19.637,16.992 -24.209,29.995 -2.094,5.945 -3.137,13.818 -3.137,23.618 l 0,47.24 c 0,5.494 0.13,9.119 0.393,10.882 0.586,3.657 2.025,6.924 4.311,9.799 4.509,5.747 10.325,8.627 17.448,8.627 6.335,0 11.727,-2.318 16.17,-6.957 3.856,-3.988 5.784,-10.361 5.784,-19.112"
           style="fill:#00afe6;fill-opacity:1;fill-rule:nonzero;stroke:none"
           id="path3669"
           inkscape:connector-curvature="0" />
        <path
           d="m 1486.2719,270.49219 -11.664,0 c -6.469,0 -11.827,1.763 -16.074,5.291 -4.509,3.787 -6.761,8.854 -6.761,15.193 0,3.787 1.062,7.426 3.184,10.924 2.123,3.496 4.868,5.981 8.233,7.453 3.364,1.468 11.352,2.2 23.963,2.2 l 44.498,0 c 10.911,0 17.97,-0.653 21.17,-1.96 3.528,-1.436 6.386,-3.902 8.576,-7.399 2.19,-3.497 3.283,-7.169 3.283,-11.024 0,-6.074 -2.418,-11.369 -7.252,-15.879 -3.465,-3.202 -9.114,-4.799 -16.957,-4.799 l -10.095,0 0,-66.651 c 0,-7.252 -1.243,-12.874 -3.724,-16.86 -4.183,-6.662 -10.227,-9.993 -18.131,-9.993 -7.907,0 -13.983,3.037 -18.229,9.11 -2.681,3.791 -4.02,9.543 -4.02,17.254 l 0,67.14 z"
           style="fill:#00afe6;fill-opacity:1;fill-rule:nonzero;stroke:none"
           id="path3671"
           inkscape:connector-curvature="0" />
        <path
           d="m 1249.0507,370.24659 6.743,-10.814 c 1.865,-3.012 2.799,-6.107 2.799,-9.288 0,-4.029 -1.39,-7.369 -4.167,-10.019 -2.778,-2.65 -6.181,-3.976 -10.21,-3.976 -5.174,0 -9.097,2.205 -11.768,6.616 l -11.96,19.593 0,-11.768 c 0,-4.03 -1.326,-7.443 -3.976,-10.242 -2.65,-2.799 -5.99,-4.199 -10.019,-4.199 -4.92,0 -8.651,1.76 -11.195,5.28 -2.29,3.095 -3.435,7.167 -3.435,12.214 l 0,53.499 c 0,10.983 5.916,16.476 17.748,16.476 l 18.193,0 c 5.979,0 11.535,-1.729 16.666,-5.185 5.131,-3.457 8.885,-7.941 11.26,-13.454 1.781,-4.157 2.672,-8.334 2.672,-12.532 0,-7.846 -3.117,-15.246 -9.351,-22.201"
           style="fill:#9c9b9b;fill-opacity:1;fill-rule:nonzero;stroke:none"
           id="path3673"
           inkscape:connector-curvature="0" />
        <path
           d="m 1289.8906,348.04599 c -1.358,-3.224 -2.757,-5.62 -4.199,-7.188 -2.884,-3.14 -6.383,-4.708 -10.496,-4.708 -5.047,0 -8.969,2.036 -11.768,6.107 -1.654,2.417 -2.481,5.131 -2.481,8.143 0,2.501 0.594,5.025 1.781,7.569 l 27.163,57.825 c 2.629,5.64 7.018,8.46 13.168,8.46 6.234,0 10.707,-2.905 13.422,-8.714 l 27.417,-58.27 c 1.103,-2.333 1.655,-4.644 1.655,-6.934 0,-3.394 -1.104,-6.404 -3.308,-9.033 -2.885,-3.435 -6.574,-5.153 -11.069,-5.153 -3.69,0 -6.765,1.145 -9.224,3.435 -1.824,1.696 -3.647,4.517 -5.471,8.461 l -26.59,0 z"
           style="fill:#9c9b9b;fill-opacity:1;fill-rule:nonzero;stroke:none"
           id="path3675"
           inkscape:connector-curvature="0" />
        <path
           d="m 1366.8627,423.61819 17.493,0 c 12.765,0 23.261,-3.648 31.489,-10.941 9.626,-8.524 14.44,-19.318 14.44,-32.379 0,-6.405 -1.4,-12.554 -4.198,-18.449 -4.834,-10.177 -12.384,-17.388 -22.647,-21.628 -5.556,-2.29 -12.999,-3.435 -22.328,-3.435 l -12.15,0 c -5.811,0 -9.86,0.763 -12.15,2.29 -2.969,1.993 -4.878,4.495 -5.725,7.506 -0.509,1.823 -0.764,5.09 -0.764,9.797 l 0,47.71 c 0,4.113 0.064,6.636 0.191,7.57 0.339,2.671 1.314,4.94 2.926,6.807 2.927,3.435 7.401,5.152 13.423,5.152"
           style="fill:#9c9b9b;fill-opacity:1;fill-rule:nonzero;stroke:none"
           id="path3677"
           inkscape:connector-curvature="0" />
        <path
           d="m 1467.562,406.50639 0,-53.88 c 0,-4.666 -1.208,-8.504 -3.626,-11.515 -2.587,-3.308 -6.17,-4.961 -10.75,-4.961 -4.198,0 -7.74,1.547 -10.624,4.644 -2.417,2.586 -3.626,6.53 -3.626,11.832 l 0,53.88 c 0,6.021 1.209,10.39 3.626,13.104 2.757,3.096 6.298,4.644 10.624,4.644 4.325,0 7.866,-1.527 10.623,-4.58 2.502,-2.799 3.753,-7.189 3.753,-13.168"
           style="fill:#9c9b9b;fill-opacity:1;fill-rule:nonzero;stroke:none"
           id="path3679"
           inkscape:connector-curvature="0" />
        <path
           d="m 1232.7861,573.99269 270.915,-154.754 c 0,0 108.746,-60.002 129.568,-80.824"
           style="fill:none;stroke:#808080;stroke-width:9.42300034;stroke-linecap:butt;stroke-linejoin:miter;stroke-miterlimit:10;stroke-opacity:1;stroke-dasharray:14.135, 14.135;stroke-dashoffset:0"
           id="path3683"
           inkscape:connector-curvature="0" />
        <path
           d="m 1521.9516,425.97219 c 8.82,0.084 16.922,-2.217 24.301,-6.902 7.379,-4.687 12.976,-10.868 16.794,-18.543 3.18,-6.362 4.77,-13.105 4.77,-20.229 0,-8.016 -1.971,-15.522 -5.916,-22.52 -3.943,-6.997 -9.33,-12.574 -16.157,-16.73 -7.252,-4.41 -15.268,-6.616 -24.046,-6.616 -8.524,0 -16.487,2.301 -23.887,6.902 -7.401,4.601 -12.988,10.74 -16.762,18.416 -3.181,6.446 -4.771,13.528 -4.771,21.247 0,6.362 1.377,12.51 4.135,18.448 3.773,8.184 9.415,14.652 16.921,19.402 7.337,4.665 15.543,7.04 24.618,7.125"
           style="fill:#9c9b9b;fill-opacity:1;fill-rule:nonzero;stroke:none"
           id="path3681"
           inkscape:connector-curvature="0" />
      </g>
    </g>
  </g>
</svg>
